<svg xmlns="http://www.w3.org/2000/svg" viewBox="0 0 283.96 289.91"><defs><style>.cls-1{fill:#5e4961;}.cls-2,.cls-5,.cls-6{fill:#fff;}.cls-3{fill:none;stroke:#47354c;stroke-width:0.96px;}.cls-3,.cls-4,.cls-5,.cls-6{stroke-linecap:round;stroke-linejoin:round;}.cls-4{fill:#47354c;}.cls-4,.cls-6{stroke:#fff;}.cls-5{stroke:#5f4b62;}</style></defs><g id="Camada_3" data-name="Camada 3"><path class="cls-1" d="M222.58,91.38c4.06,21.38,9.9,75.32-23.35,114.36-10.44,12.25-22.92,20.79-32.95,27.65-7.56,5.16-14.07,9.62-18.29,14.37l-10.6,11.94-10.6-11.94c-4.21-4.75-10.73-9.2-18.27-14.36-10-6.87-22.53-15.42-33-27.66-33.26-39-27.41-93-23.36-114.36l3.08-16.22,15.56,5.49c6.64,2.34,16.16,4,28.34,5l.12,0A55,55,0,0,0,102,91.36C86.26,90.3,69.53,87.8,61.34,82.14a1,1,0,0,0-1.57.57C57,93.21,42.13,158,79.75,202.17c20.72,24.33,48.91,32.63,56,49.35a1.81,1.81,0,0,0,3.32,0c7.07-16.72,35.26-25,56-49.35,37.61-44.16,22.72-109,20-119.46a1,1,0,0,0-1.58-.57c-8.18,5.66-24.92,8.16-40.61,9.22a57,57,0,0,0,2.65-5.76l.11,0c12.19-1,21.71-2.65,28.35-5l15.56-5.49Z"/><path class="cls-2" d="M215,82.71c2.74,10.5,17.63,75.3-20,119.46-20.73,24.33-48.92,32.63-56,49.35a1.81,1.81,0,0,1-3.32,0c-7.07-16.72-35.26-25-56-49.35C42.13,158,57,93.21,59.77,82.71a1,1,0,0,1,1.57-.57C69.53,87.8,86.26,90.3,102,91.36a55,55,0,0,1-2.65-5.77A62.61,62.61,0,0,1,95,62.48a60.84,60.84,0,0,1,8.92-32.27l0,0a67.48,67.48,0,0,0-1.23,12.88c0,26.92,15.52,48.74,34.67,48.74S172.06,70,172.06,43.12A67,67,0,0,0,171,30.86a60.34,60.34,0,0,1,8.85,31.62,62.87,62.87,0,0,1-4.32,23.12,57,57,0,0,1-2.65,5.76c15.69-1.06,32.43-3.56,40.61-9.22A1,1,0,0,1,215,82.71Z"/><path class="cls-3" d="M99.3,85.59A55,55,0,0,0,102,91.36C86.26,90.3,69.53,87.8,61.34,82.14a1,1,0,0,0-1.57.57C57,93.21,42.13,158,79.75,202.17c20.72,24.33,48.91,32.63,56,49.35a1.81,1.81,0,0,0,3.32,0c7.07-16.72,35.26-25,56-49.35,37.61-44.16,22.72-109,20-119.46a1,1,0,0,0-1.58-.57c-8.18,5.66-24.92,8.16-40.61,9.22a57,57,0,0,0,2.65-5.76,62.87,62.87,0,0,0,4.32-23.12A60.34,60.34,0,0,0,171,30.86a67,67,0,0,1,1.11,12.26c0,26.92-15.52,48.74-34.67,48.74S102.72,70,102.72,43.12A67.48,67.48,0,0,1,104,30.24l0,0A60.84,60.84,0,0,0,95,62.48,62.61,62.61,0,0,0,99.3,85.59Z"/><path class="cls-3" d="M175.59,85.64c12.19-1,21.71-2.65,28.35-5l15.56-5.49,3.08,16.22c4.06,21.38,9.9,75.32-23.35,114.36-10.44,12.25-22.92,20.79-32.95,27.65-7.56,5.16-14.07,9.62-18.29,14.37l-10.6,11.94-10.6-11.94c-4.21-4.75-10.73-9.2-18.27-14.36-10-6.87-22.53-15.42-33-27.66-33.26-39-27.41-93-23.36-114.36l3.08-16.22,15.56,5.49c6.64,2.34,16.16,4,28.34,5"/><path class="cls-1" d="M212.76,86.06c3.93,16.58,14.21,74-20,114.17-9.69,11.38-21.16,19.22-31.27,26.14-10.43,7.13-19.56,13.37-24.09,21.69-4.53-8.32-13.65-14.56-24.08-21.69-10.12-6.92-21.58-14.76-31.28-26.14C47.81,160.06,58.09,102.64,62,86.06c7.84,4.26,21.18,7,39.73,8.3l5.38.36L104.6,90A58.77,58.77,0,0,1,98,62.48a61.07,61.07,0,0,1,1.87-15.16c1.56,26.57,17.8,47.54,37.54,47.54s35.82-20.76,37.52-47.13A59.71,59.71,0,0,1,170.18,90l-2.53,4.76,5.38-.36C191.59,93.1,204.93,90.32,212.76,86.06Z"/><path class="cls-3" d="M137.39,248.06c-4.53-8.32-13.65-14.56-24.08-21.69-10.12-6.92-21.58-14.76-31.28-26.14C47.81,160.06,58.09,102.64,62,86.06c7.84,4.26,21.18,7,39.73,8.3l5.38.36L104.6,90A58.77,58.77,0,0,1,98,62.48a61.07,61.07,0,0,1,1.87-15.16c1.56,26.57,17.8,47.54,37.54,47.54s35.82-20.76,37.52-47.13A59.71,59.71,0,0,1,170.18,90l-2.53,4.76,5.38-.36c18.56-1.26,31.9-4,39.73-8.3,3.93,16.58,14.21,74-20,114.17-9.69,11.38-21.16,19.22-31.27,26.14C151.05,233.5,141.92,239.74,137.39,248.06Z"/><path class="cls-4" d="M54.2,235.51c-18.83,0-22.79-11.3-22.79-20.78a22.29,22.29,0,0,1,2.73-11.29,17.79,17.79,0,0,1,8.16-7.31,29.18,29.18,0,0,1,12.28-2.36,39.3,39.3,0,0,1,8.12.8l2.24.47v14.12l-3.38-.66a31.32,31.32,0,0,0-6.07-.61,12.22,12.22,0,0,0-4.8.76,4,4,0,0,0-2,1.84,9.13,9.13,0,0,0-.78,4.15,9.46,9.46,0,0,0,.76,4.23,3.72,3.72,0,0,0,1.92,1.78,12.13,12.13,0,0,0,4.69.74,25.81,25.81,0,0,0,6.16-.88l3.53-.91v14.17l-2,.59a30.51,30.51,0,0,1-4.16.84A33.16,33.16,0,0,1,54.2,235.51Z"/><path class="cls-4" d="M82,235.51a23.52,23.52,0,0,1-10.78-2.35,17.05,17.05,0,0,1-7.41-7.27,26.39,26.39,0,0,1,0-22.51,17.08,17.08,0,0,1,7.41-7.26A23.52,23.52,0,0,1,82,193.77a23.53,23.53,0,0,1,10.79,2.36,17.18,17.18,0,0,1,7.41,7.28,26.28,26.28,0,0,1,0,22.46,17.18,17.18,0,0,1-7.41,7.28A23.63,23.63,0,0,1,82,235.51Zm0-27.84a3.7,3.7,0,0,0-3.23,1.27c-.57.71-1.25,2.25-1.25,5.51,0,3.52.68,5.14,1.25,5.87.42.55,1.22,1.29,3.23,1.29s2.82-.73,3.25-1.27c.57-.72,1.24-2.26,1.24-5.51,0-3.48-.69-5.1-1.27-5.85A3.63,3.63,0,0,0,82,207.67Z"/><path class="cls-4" d="M122.76,235l-5.68-8.63V235h-15.8V195.75l2.19-.51a55.34,55.34,0,0,1,6.24-1.07,54.45,54.45,0,0,1,6.46-.4c6,0,10.56,1.13,13.8,3.46,3.5,2.51,5.27,6.3,5.27,11.26a14,14,0,0,1-2,7.58,13.46,13.46,0,0,1-3,3.33L140.76,235Zm-5.36-25a4.06,4.06,0,0,0,2.31-.44c.06-.05.22-.34.22-1.12s0-1.6-2.57-1.6h-.28v3.16Z"/><path class="cls-4" d="M152.65,235.51c-6.27,0-11-1.61-14.16-4.77s-4.7-7.85-4.7-13.94V194.24h16v23.53c0,2.09.47,2.84.68,3.06a4.09,4.09,0,0,0,4.36,0c.2-.22.68-1,.68-3.06V194.24h15.8V216.8c0,6.09-1.56,10.78-4.65,13.93S158.84,235.51,152.65,235.51Z"/><path class="cls-4" d="M166.11,237l1.81-2.41a13.06,13.06,0,0,0,2.18-4.11,20.19,20.19,0,0,0,.62-5.47V194.24h15.95v30.37a24.2,24.2,0,0,1-1.86,9.55,26.66,26.66,0,0,1-6.13,8.48l-1.63,1.58Z"/><polygon class="cls-4" points="210.41 235.03 208.18 226.99 200.87 226.99 198.66 235.03 182.71 235.03 194.89 194.24 214.28 194.24 226.46 235.03 210.41 235.03"/><path class="cls-4" d="M234.47,235.51a39.86,39.86,0,0,1-6-.45A34.11,34.11,0,0,1,223,233.8l-1.95-.64V218.92l3.73,1.24a27.2,27.2,0,0,0,4.63,1.06,37.2,37.2,0,0,0,4.11.4l-1.78-.46a16.93,16.93,0,0,1-8.56-4.55A12.2,12.2,0,0,1,220,208a12.68,12.68,0,0,1,5.2-10.68c3.22-2.36,7.68-3.5,13.66-3.5a37.67,37.67,0,0,1,9.55,1.11l2.11.56v14.29l-3.67-1.14a21,21,0,0,0-3.34-.68,31.46,31.46,0,0,0-4-.26h-.44l1,.26c4.06,1,7.05,2.49,9.11,4.61a12.06,12.06,0,0,1,3.3,8.74,13,13,0,0,1-2.36,7.7,14.36,14.36,0,0,1-6.52,5A24.72,24.72,0,0,1,234.47,235.51Z"/><polygon class="cls-4" points="41.72 175.06 41.72 107.87 65.47 107.87 65.47 154.51 92.41 154.51 92.41 175.06 41.72 175.06"/><rect class="cls-4" x="91.6" y="107.87" width="23.75" height="67.19"/><path class="cls-4" d="M157.5,175.89c-13.24,0-23.35-2.85-30.07-8.47-6.87-5.75-10.35-14.43-10.35-25.79,0-11.13,3.58-19.8,10.65-25.78S144.85,107,158,107a68.25,68.25,0,0,1,14.53,1.48l2.23.49v20.42l-3.4-.69a58.86,58.86,0,0,0-11.66-1.23,32.13,32.13,0,0,0-11.19,1.63,9.73,9.73,0,0,0-5.23,4.28,17.54,17.54,0,0,0-1.74,8.5c0,4.77,1.13,8.26,3.36,10.38,2,1.92,5.19,3,9.43,3.21v-16h22.42V174l-2.38.38A107.44,107.44,0,0,1,157.5,175.89Z"/><path class="cls-4" d="M222.18,175.06,218.28,161H202.22l-3.86,14.09H174.89L195,107.87h30.78l20.07,67.19Z"/><path class="cls-5" d="M44.55,172.23V110.7H62.63v46.65H89.57v14.88Z"/><polygon class="cls-5" points="47.39 169.39 47.39 113.54 59.8 113.54 59.8 160.18 86.74 160.18 86.74 169.39 47.39 169.39"/><path class="cls-5" d="M94.43,172.23V110.7h18.09v61.53Z"/><rect class="cls-5" x="97.27" y="113.54" width="12.41" height="55.85"/><path class="cls-5" d="M174,142.3v29.3a104.22,104.22,0,0,1-16.47,1.46q-18.9,0-28.24-7.82t-9.33-23.61q0-15.47,9.64-23.61T158,109.87A64.48,64.48,0,0,1,172,111.29V126a61.45,61.45,0,0,0-12.22-1.29,34.91,34.91,0,0,0-12.22,1.83,12.51,12.51,0,0,0-6.67,5.53q-2.1,3.74-2.1,9.89,0,8.4,4.24,12.43t13,4h1.2V142.3Z"/><path class="cls-5" d="M157.5,170.22c-11.87,0-20.76-2.4-26.43-7.15s-8.32-11.7-8.32-21.44c0-9.52,2.83-16.53,8.64-21.44s14.84-7.48,26.65-7.48a64.25,64.25,0,0,1,11.09.91v9a62.62,62.62,0,0,0-9.39-.74c-5.52,0-9.85.69-13.25,2a15.33,15.33,0,0,0-8.12,6.78,23,23,0,0,0-2.46,11.28c0,6.38,1.73,11.25,5.12,14.49s8.4,4.81,15,4.81h4V145.13h11.08v24A97.64,97.64,0,0,1,157.5,170.22Z"/><path class="cls-5" d="M224.34,172.23l-3.91-14.09H200.06l-3.86,14.09H178.69l18.38-61.53h26.56L242,172.23ZM204,144h12.55l-6.32-17.74Z"/><polygon class="cls-5" points="226.49 169.39 222.59 155.3 197.9 155.3 194.03 169.39 182.5 169.39 199.18 113.54 210.38 113.54 200.25 146.84 220.25 146.84 210.38 113.54 221.52 113.54 238.2 169.39 226.49 169.39"/><path class="cls-5" d="M34.25,214.73a19.38,19.38,0,0,1,2.35-9.87,15,15,0,0,1,6.89-6.16,26.35,26.35,0,0,1,11.09-2.1,36.28,36.28,0,0,1,7.53.74v8.38a34,34,0,0,0-6.62-.67,15,15,0,0,0-6,1,6.72,6.72,0,0,0-3.39,3.12A11.72,11.72,0,0,0,45,214.64a12.24,12.24,0,0,0,1.07,5.52,6.51,6.51,0,0,0,3.31,3.08,14.59,14.59,0,0,0,5.83,1,28.14,28.14,0,0,0,6.86-1v8.38a26.5,26.5,0,0,1-3.76.76,30.81,30.81,0,0,1-4.15.29Q34.25,232.68,34.25,214.73Z"/><path class="cls-5" d="M72.5,230.63a14.25,14.25,0,0,1-6.19-6.08,23.61,23.61,0,0,1,0-19.82,14.22,14.22,0,0,1,6.19-6.09,20.73,20.73,0,0,1,9.5-2,20.63,20.63,0,0,1,9.5,2.06,14.32,14.32,0,0,1,6.21,6.09,23.5,23.5,0,0,1,0,19.77,14.34,14.34,0,0,1-6.21,6.1,20.63,20.63,0,0,1-9.5,2.06A20.6,20.6,0,0,1,72.5,230.63Zm15-8.54q1.84-2.35,1.85-7.26,0-5.18-1.86-7.58A6.5,6.5,0,0,0,82,204.84a6.55,6.55,0,0,0-5.45,2.34c-1.24,1.55-1.86,4-1.86,7.27q0,5.22,1.84,7.61A6.48,6.48,0,0,0,82,224.44,6.55,6.55,0,0,0,87.48,222.09Z"/><path class="cls-5" d="M124.29,232.2l-7.76-11.79-2.28-.08V232.2H104.11V198a57.12,57.12,0,0,1,5.94-1,52.59,52.59,0,0,1,6.12-.38q8.07,0,12.15,2.93t4.08,9a11.22,11.22,0,0,1-1.59,6.08,11,11,0,0,1-4.53,4l9.16,13.62Zm-10-19.51a26.58,26.58,0,0,0,3.15.19,6.63,6.63,0,0,0,4-1,4,4,0,0,0,1.34-3.37c0-3-1.81-4.44-5.41-4.44a17.06,17.06,0,0,0-3.11.29Z"/><path class="cls-5" d="M140.51,228.75q-3.88-3.93-3.88-11.95V197.08H147v20.69c0,2.28.48,3.94,1.42,5a6.64,6.64,0,0,0,8.55,0q1.43-1.55,1.42-5V197.08h10.14V216.8q0,8-3.85,11.95t-12,3.93Q144.39,232.68,140.51,228.75Z"/><path class="cls-5" d="M170.18,236.28a15.57,15.57,0,0,0,2.64-5,22.69,22.69,0,0,0,.73-6.26V197.08h10.28v27.53A21.16,21.16,0,0,1,182.2,233a23.64,23.64,0,0,1-5.49,7.56Z"/><path class="cls-5" d="M212.57,232.2l-2.23-8H198.71l-2.21,8h-10L197,197.08h15.16l10.5,35.12Zm-11.63-16.11h7.17l-3.61-13Z"/><path class="cls-5" d="M228.91,232.26a31.75,31.75,0,0,1-5-1.15v-8.26A30.5,30.5,0,0,0,229,224a35.06,35.06,0,0,0,5.38.44,8.49,8.49,0,0,0,3.93-.65,2,2,0,0,0,1.15-1.84,1.89,1.89,0,0,0-.31-1.11A2.81,2.81,0,0,0,238,220a14.25,14.25,0,0,0-2.42-.79l-3.13-.81a14.07,14.07,0,0,1-7.2-3.74,9.4,9.4,0,0,1-2.41-6.72,9.77,9.77,0,0,1,4-8.39q4-3,12-3a34.78,34.78,0,0,1,8.83,1v8.26a23.56,23.56,0,0,0-3.81-.78,33.74,33.74,0,0,0-4.33-.29,12.87,12.87,0,0,0-5,.7,2.13,2.13,0,0,0-1.44,1.89,1.75,1.75,0,0,0,.26,1,2.19,2.19,0,0,0,.94.74,10.94,10.94,0,0,0,2,.71l3.15.8q5.3,1.29,7.79,3.85a9.29,9.29,0,0,1,2.49,6.76,10.16,10.16,0,0,1-1.83,6.06,11.55,11.55,0,0,1-5.27,4,21.76,21.76,0,0,1-8.14,1.39A36.68,36.68,0,0,1,228.91,232.26Z"/><path class="cls-6" d="M119.81,190.14V178.5c.54-.11,1.12-.2,1.75-.27a16.19,16.19,0,0,1,1.81-.1,6.75,6.75,0,0,1,4.77,1.5,6.06,6.06,0,0,1,1.59,4.6,7.06,7.06,0,0,1-.75,3.47,4.51,4.51,0,0,1-2.26,2,9.89,9.89,0,0,1-3.8.63A27.42,27.42,0,0,1,119.81,190.14Zm5.93-2a2.83,2.83,0,0,0,1.34-1.39,7.27,7.27,0,0,0,0-5,2.88,2.88,0,0,0-1.33-1.4,5,5,0,0,0-2.25-.45A8.69,8.69,0,0,0,122,180v8.45a12.84,12.84,0,0,0,1.49.07A5.09,5.09,0,0,0,125.74,188.11Z"/><path class="cls-6" d="M139.4,190.21l-1.12-3.44h-4.67l-1.12,3.44h-2.12l4-12h3.12l4,12ZM134.17,185h3.54l-1.77-5.43Z"/><path class="cls-6" d="M143.68,190.23a8.9,8.9,0,0,1-1.54-.37v-1.77a9.36,9.36,0,0,0,1.58.39,10.37,10.37,0,0,0,1.62.13,3.14,3.14,0,0,0,1.85-.43,1.42,1.42,0,0,0,.59-1.25,1.49,1.49,0,0,0-.18-.77,1.45,1.45,0,0,0-.6-.54,5.47,5.47,0,0,0-1.17-.42L145,185a4.75,4.75,0,0,1-2.36-1.22,3,3,0,0,1-.77-2.15,3.09,3.09,0,0,1,1.2-2.6,5.72,5.72,0,0,1,3.51-.92,10.22,10.22,0,0,1,1.48.1,8.24,8.24,0,0,1,1.28.26v1.77a8.83,8.83,0,0,0-1.27-.28,10.66,10.66,0,0,0-1.38-.09,3.84,3.84,0,0,0-2,.42,1.4,1.4,0,0,0-.63,1.22,1.54,1.54,0,0,0,.16.75,1.31,1.31,0,0,0,.55.51,4.89,4.89,0,0,0,1.06.41l.8.2a5.21,5.21,0,0,1,2.53,1.25,3,3,0,0,1,.8,2.17,3.38,3.38,0,0,1-.54,1.92,3.43,3.43,0,0,1-1.59,1.23,6.58,6.58,0,0,1-2.47.42A10.41,10.41,0,0,1,143.68,190.23Z"/></g></svg>